<svg width="54" height="34" viewBox="0 0 54 34" fill="none" xmlns="http://www.w3.org/2000/svg">
<path d="M19.9231 33.9783C27.6785 34.3946 31.197 26.1881 33.4289 19.9983C34.0837 18.353 35.3831 14.584 38.0971 14.584C40.8084 14.584 41.4348 18.3822 41.812 20.6166C41.8465 20.8207 41.747 21.0234 41.5648 21.12C39.402 22.2681 35.1928 26.4602 32.8309 27.8001C31.0981 28.783 30.6417 31.0875 31.866 32.6635C31.8856 32.6887 31.9053 32.7139 31.9242 32.739C33.4654 34.715 36.5512 34.2987 37.508 31.9799C38.2244 30.2441 40.8294 25.5467 41.5675 23.8108C41.7673 23.3408 42.4614 23.4626 42.4912 23.9727C42.8406 29.9394 43.5279 33.9314 46.2216 33.9314C49.304 33.9314 50.9393 31.2508 53.1278 23.4775C53.1928 23.2463 53.0791 23.0014 52.8604 22.9034C52.6112 22.7919 52.3207 22.9109 52.2184 23.1653C51.458 25.0603 49.8301 28.2035 48.0661 28.2035C45.1991 28.2035 44.3296 24.0618 43.9728 21.6873C43.945 21.5016 44.0269 21.3165 44.184 21.2145C46.3868 19.7834 50.1504 15.9396 52.6098 14.3296C54.3101 13.2161 54.4815 10.7783 52.9538 9.43563C52.9328 9.41726 52.9111 9.39822 52.8902 9.37985C51.309 7.99906 48.8469 8.57383 48.0445 10.5185C47.2251 12.5033 45.0528 16.7191 44.182 18.6563C43.9795 19.1066 43.3119 18.9964 43.2645 18.5046C42.6902 12.5659 41.3596 9.0656 39.0614 9.0656C36.2092 9.0656 34.431 12.304 32.1876 19.3909C32.1843 19.4011 32.1809 19.412 32.1768 19.4222C30.2165 24.5237 26.7129 27.8137 20.5305 28.0539C17.463 28.1729 15.1539 26.7288 14.7104 25.0413C14.6366 24.7617 14.8262 24.4801 15.1113 24.4393C27.3575 22.6905 31.715 21.2547 31.715 16.8504C31.715 13.8419 29.2813 9.52814 24.9767 9.52814C18.6738 9.52814 12.8564 14.8942 12.8564 22.7436C12.857 28.2212 14.9007 33.709 19.9231 33.9783ZM0 28.9021C0 31.6283 1.96577 33.9783 4.63306 33.9783C11.884 33.9783 13.8599 18.0843 15.2318 18.0843L14.3061 16.3858C12.1278 20.8826 10.638 28.0539 8.66955 28.0539C7.79535 28.0539 7.20691 27.09 7.20691 25.2943C7.20691 18.085 12.356 9.37577 12.356 3.67984C12.356 1.35222 11.5346 0 10.0164 0C7.96599 0 5.43345 2.47182 4.79761 6.79104C4.76714 6.99918 4.87413 7.20392 5.0617 7.29642L5.12399 7.32703C5.38063 7.45355 5.68806 7.32771 5.7876 7.05836C6.60898 4.83549 7.68768 3.9662 8.59032 3.9662C9.57152 3.9662 10.1383 4.61579 10.1383 5.71702C10.1376 9.65941 0 20.2847 0 28.9021ZM22.4035 14.6581C25.8285 14.6581 27.1104 17.7898 26.6154 19.765C26.3262 20.9173 23.6237 21.4131 15.4255 23.1163C15.0828 23.1878 14.8059 22.8837 14.858 22.5368C15.5101 18.2251 17.7359 14.6581 22.4035 14.6581Z" fill="#232323"/>
</svg>
